<svg xmlns="http://www.w3.org/2000/svg" viewBox="0 0 588 374" width="588" height="374" role="img" aria-label="Sage &amp; Lavender"><title>Sage &amp; Lavender</title><g font-family="Arial, Helvetica, sans-serif"><rect x="0" y="0" width="588" height="374" rx="5" fill="#FFFFFF" stroke="#D6D9DD" stroke-width="1"/><text x="22" y="32" fill="#24272B" font-size="22" font-weight="bold" text-anchor="start">01   Sage &amp; Lavender</text><text x="22" y="55" fill="#51565D" font-size="12" font-weight="normal" text-anchor="start">sage-lavender</text><text x="566" y="55" fill="#51565D" font-size="11" font-weight="normal" text-anchor="end">RLDX-1 Figures 2 and 3</text><text x="22" y="81" fill="#51565D" font-size="11" font-weight="bold" text-anchor="start">SAGE</text><rect x="22" y="90" width="52" height="29" rx="0" fill="#E3EFEB" stroke="none" stroke-width="1"/><text x="22" y="134" fill="#24272B" font-size="10" font-weight="normal" text-anchor="start">#E3EFEB</text><text x="22" y="147" fill="#51565D" font-size="10" font-weight="normal" text-anchor="start">fill</text><rect x="79" y="90" width="52" height="29" rx="0" fill="#557E73" stroke="none" stroke-width="1"/><text x="79" y="134" fill="#24272B" font-size="10" font-weight="normal" text-anchor="start">#557E73</text><text x="79" y="147" fill="#51565D" font-size="10" font-weight="normal" text-anchor="start">stroke</text><rect x="136" y="90" width="52" height="29" rx="0" fill="#2E7564" stroke="none" stroke-width="1"/><text x="136" y="134" fill="#24272B" font-size="10" font-weight="normal" text-anchor="start">#2E7564</text><text x="136" y="147" fill="#51565D" font-size="10" font-weight="normal" text-anchor="start">accent</text><text x="205" y="81" fill="#51565D" font-size="11" font-weight="bold" text-anchor="start">LAVENDER</text><rect x="205" y="90" width="52" height="29" rx="0" fill="#E6E3F2" stroke="none" stroke-width="1"/><text x="205" y="134" fill="#24272B" font-size="10" font-weight="normal" text-anchor="start">#E6E3F2</text><text x="205" y="147" fill="#51565D" font-size="10" font-weight="normal" text-anchor="start">fill</text><rect x="262" y="90" width="52" height="29" rx="0" fill="#7B70A0" stroke="none" stroke-width="1"/><text x="262" y="134" fill="#24272B" font-size="10" font-weight="normal" text-anchor="start">#7B70A0</text><text x="262" y="147" fill="#51565D" font-size="10" font-weight="normal" text-anchor="start">stroke</text><rect x="319" y="90" width="52" height="29" rx="0" fill="#63558F" stroke="none" stroke-width="1"/><text x="319" y="134" fill="#24272B" font-size="10" font-weight="normal" text-anchor="start">#63558F</text><text x="319" y="147" fill="#51565D" font-size="10" font-weight="normal" text-anchor="start">accent</text><text x="388" y="81" fill="#51565D" font-size="11" font-weight="bold" text-anchor="start">STEEL</text><rect x="388" y="90" width="52" height="29" rx="0" fill="#E2ECF3" stroke="none" stroke-width="1"/><text x="388" y="134" fill="#24272B" font-size="10" font-weight="normal" text-anchor="start">#E2ECF3</text><text x="388" y="147" fill="#51565D" font-size="10" font-weight="normal" text-anchor="start">fill</text><rect x="445" y="90" width="52" height="29" rx="0" fill="#527E9D" stroke="none" stroke-width="1"/><text x="445" y="134" fill="#24272B" font-size="10" font-weight="normal" text-anchor="start">#527E9D</text><text x="445" y="147" fill="#51565D" font-size="10" font-weight="normal" text-anchor="start">stroke</text><rect x="502" y="90" width="52" height="29" rx="0" fill="#366C91" stroke="none" stroke-width="1"/><text x="502" y="134" fill="#24272B" font-size="10" font-weight="normal" text-anchor="start">#366C91</text><text x="502" y="147" fill="#51565D" font-size="10" font-weight="normal" text-anchor="start">accent</text><text x="22" y="174" fill="#51565D" font-size="11" font-weight="normal" text-anchor="start">Color use: related families with light fills and stronger details</text><rect x="148" y="191" width="269" height="136" rx="3" fill="#E3EFEB" stroke="#737980" stroke-width="0.9"/><text x="160" y="211" fill="#24272B" font-size="12" font-weight="bold" text-anchor="start">Shared model</text><rect x="22" y="213" width="17" height="17" rx="0" fill="#E3EFEB" stroke="#557E73" stroke-width="1.2"/><rect x="45" y="213" width="17" height="17" rx="0" fill="#E3EFEB" stroke="#557E73" stroke-width="1.2"/><rect x="68" y="213" width="17" height="17" rx="0" fill="#E3EFEB" stroke="#557E73" stroke-width="1.2"/><rect x="91" y="213" width="17" height="17" rx="0" fill="#E3EFEB" stroke="#557E73" stroke-width="1.2"/><text x="22" y="247" fill="#24272B" font-size="11" font-weight="normal" text-anchor="start">Input A</text><path d="M112 222H169" fill="none" stroke="#363C42" stroke-width="2"/><path d="M169 222l-7 -4v8z" fill="#363C42"/><rect x="22" y="273" width="17" height="17" rx="0" fill="#E6E3F2" stroke="#7B70A0" stroke-width="1.2"/><rect x="45" y="273" width="17" height="17" rx="0" fill="#E6E3F2" stroke="#7B70A0" stroke-width="1.2"/><rect x="68" y="273" width="17" height="17" rx="0" fill="#E6E3F2" stroke="#7B70A0" stroke-width="1.2"/><rect x="91" y="273" width="17" height="17" rx="0" fill="#E6E3F2" stroke="#7B70A0" stroke-width="1.2"/><text x="22" y="307" fill="#24272B" font-size="11" font-weight="normal" text-anchor="start">Input B</text><path d="M112 282H169" fill="none" stroke="#363C42" stroke-width="2"/><path d="M169 282l-7 -4v8z" fill="#363C42"/><rect x="172" y="219" width="82" height="24" rx="0" fill="#E3EFEB" stroke="#557E73" stroke-width="1.1"/><text x="213" y="235" fill="#24272B" font-size="10" font-weight="normal" text-anchor="middle">Encode A</text><rect x="172" y="279" width="82" height="24" rx="0" fill="#E6E3F2" stroke="#7B70A0" stroke-width="1.1"/><text x="213" y="295" fill="#24272B" font-size="10" font-weight="normal" text-anchor="middle">Encode B</text><path d="M254 231H271V261" fill="none" stroke="#363C42" stroke-width="2"/><path d="M254 291H271V261" fill="none" stroke="#363C42" stroke-width="2"/><path d="M271 261H294" fill="none" stroke="#363C42" stroke-width="2"/><path d="M294 261l-7 -4v8z" fill="#363C42"/><rect x="297" y="240" width="96" height="42" rx="0" fill="#FFFFFF" stroke="#737980" stroke-width="1.1"/><text x="345" y="265" fill="#24272B" font-size="12" font-weight="normal" text-anchor="middle">Integrate</text><path d="M393 261H445" fill="none" stroke="#363C42" stroke-width="2"/><path d="M445 261l-7 -4v8z" fill="#363C42"/><rect x="451" y="250" width="18" height="22" rx="0" fill="#366C91" stroke="#527E9D" stroke-width="1"/><rect x="476" y="250" width="18" height="22" rx="0" fill="#366C91" stroke="#527E9D" stroke-width="1"/><rect x="501" y="250" width="18" height="22" rx="0" fill="#366C91" stroke="#527E9D" stroke-width="1"/><rect x="526" y="250" width="18" height="22" rx="0" fill="#366C91" stroke="#527E9D" stroke-width="1"/><text x="451" y="292" fill="#24272B" font-size="11" font-weight="normal" text-anchor="start">Output</text><rect x="22" y="343" width="13" height="13" rx="0" fill="#24272B" stroke="none" stroke-width="1"/><text x="41" y="354" fill="#24272B" font-size="11" font-weight="normal" text-anchor="start">Ink #24272B</text><rect x="183" y="343" width="13" height="13" rx="0" fill="#F2F3F4" stroke="#737980" stroke-width="1"/><text x="202" y="354" fill="#24272B" font-size="11" font-weight="normal" text-anchor="start">Neutral structure</text><text x="400" y="354" fill="#51565D" font-size="10" font-weight="normal" text-anchor="start">Illustrative color-use example</text></g></svg>
